<svg width="158" height="22" viewBox="0 0 158 22" fill="none" xmlns="http://www.w3.org/2000/svg">
<rect x="91.5" y="0.5" width="66" height="21" rx="10.5" stroke="#F2A62C"/>
<path d="M109.668 15H108.689V9.36328C108.689 8.91797 108.717 8.37305 108.771 7.72852H108.748C108.654 8.10742 108.57 8.37891 108.496 8.54297L105.625 15H105.145L102.279 8.58984C102.197 8.40234 102.113 8.11523 102.027 7.72852H102.004C102.035 8.06445 102.051 8.61328 102.051 9.375V15H101.102V6.59766H102.402L104.98 12.457C105.18 12.9062 105.309 13.2422 105.367 13.4648H105.402C105.57 13.0039 105.705 12.6602 105.807 12.4336L108.438 6.59766H109.668V15ZM112.246 7.47656C112.074 7.47656 111.928 7.41797 111.807 7.30078C111.686 7.18359 111.625 7.03516 111.625 6.85547C111.625 6.67578 111.686 6.52734 111.807 6.41016C111.928 6.28906 112.074 6.22852 112.246 6.22852C112.422 6.22852 112.57 6.28906 112.691 6.41016C112.816 6.52734 112.879 6.67578 112.879 6.85547C112.879 7.02734 112.816 7.17383 112.691 7.29492C112.57 7.41602 112.422 7.47656 112.246 7.47656ZM112.715 15H111.754V9H112.715V15ZM119.781 14.5195C119.781 16.7227 118.727 17.8242 116.617 17.8242C115.875 17.8242 115.227 17.6836 114.672 17.4023V16.4414C115.348 16.8164 115.992 17.0039 116.605 17.0039C118.082 17.0039 118.82 16.2188 118.82 14.6484V13.9922H118.797C118.34 14.7578 117.652 15.1406 116.734 15.1406C115.988 15.1406 115.387 14.875 114.93 14.3438C114.477 13.8086 114.25 13.0918 114.25 12.1934C114.25 11.1738 114.494 10.3633 114.982 9.76172C115.475 9.16016 116.146 8.85938 116.998 8.85938C117.807 8.85938 118.406 9.18359 118.797 9.83203H118.82V9H119.781V14.5195ZM118.82 12.2871V11.4023C118.82 10.9258 118.658 10.5176 118.334 10.1777C118.014 9.83789 117.613 9.66797 117.133 9.66797C116.539 9.66797 116.074 9.88477 115.738 10.3184C115.402 10.748 115.234 11.3516 115.234 12.1289C115.234 12.7969 115.395 13.332 115.715 13.7344C116.039 14.1328 116.467 14.332 116.998 14.332C117.537 14.332 117.975 14.1406 118.311 13.7578C118.65 13.375 118.82 12.8848 118.82 12.2871ZM124.855 9.97266C124.688 9.84375 124.445 9.7793 124.129 9.7793C123.719 9.7793 123.375 9.97266 123.098 10.3594C122.824 10.7461 122.688 11.2734 122.688 11.9414V15H121.727V9H122.688V10.2363H122.711C122.848 9.81445 123.057 9.48633 123.338 9.25195C123.619 9.01367 123.934 8.89453 124.281 8.89453C124.531 8.89453 124.723 8.92188 124.855 8.97656V9.97266ZM130.193 15H129.232V14.0625H129.209C128.791 14.7812 128.176 15.1406 127.363 15.1406C126.766 15.1406 126.297 14.9824 125.957 14.666C125.621 14.3496 125.453 13.9297 125.453 13.4062C125.453 12.2852 126.113 11.6328 127.434 11.4492L129.232 11.1973C129.232 10.1777 128.82 9.66797 127.996 9.66797C127.273 9.66797 126.621 9.91406 126.039 10.4062V9.42188C126.629 9.04688 127.309 8.85938 128.078 8.85938C129.488 8.85938 130.193 9.60547 130.193 11.0977V15ZM129.232 11.9648L127.785 12.1641C127.34 12.2266 127.004 12.3379 126.777 12.498C126.551 12.6543 126.438 12.9336 126.438 13.3359C126.438 13.6289 126.541 13.8691 126.748 14.0566C126.959 14.2402 127.238 14.332 127.586 14.332C128.062 14.332 128.455 14.166 128.764 13.834C129.076 13.498 129.232 13.0742 129.232 12.5625V11.9648ZM134.787 14.9414C134.561 15.0664 134.262 15.1289 133.891 15.1289C132.84 15.1289 132.314 14.543 132.314 13.3711V9.82031H131.283V9H132.314V7.53516L133.275 7.22461V9H134.787V9.82031H133.275V13.2012C133.275 13.6035 133.344 13.8906 133.48 14.0625C133.617 14.2344 133.844 14.3203 134.16 14.3203C134.402 14.3203 134.611 14.2539 134.787 14.1211V14.9414ZM140.893 12.2402H136.656C136.672 12.9082 136.852 13.4238 137.195 13.7871C137.539 14.1504 138.012 14.332 138.613 14.332C139.289 14.332 139.91 14.1094 140.477 13.6641V14.5664C139.949 14.9492 139.252 15.1406 138.385 15.1406C137.537 15.1406 136.871 14.8691 136.387 14.3262C135.902 13.7793 135.66 13.0117 135.66 12.0234C135.66 11.0898 135.924 10.3301 136.451 9.74414C136.982 9.1543 137.641 8.85938 138.426 8.85938C139.211 8.85938 139.818 9.11328 140.248 9.62109C140.678 10.1289 140.893 10.834 140.893 11.7363V12.2402ZM139.908 11.4258C139.904 10.8711 139.77 10.4395 139.504 10.1309C139.242 9.82227 138.877 9.66797 138.408 9.66797C137.955 9.66797 137.57 9.83008 137.254 10.1543C136.938 10.4785 136.742 10.9023 136.668 11.4258H139.908ZM147.473 15H146.512V13.9805H146.488C146.043 14.7539 145.355 15.1406 144.426 15.1406C143.672 15.1406 143.068 14.873 142.615 14.3379C142.166 13.7988 141.941 13.0664 141.941 12.1406C141.941 11.1484 142.191 10.3535 142.691 9.75586C143.191 9.1582 143.857 8.85938 144.689 8.85938C145.514 8.85938 146.113 9.18359 146.488 9.83203H146.512V6.11719H147.473V15ZM146.512 12.2871V11.4023C146.512 10.918 146.352 10.5078 146.031 10.1719C145.711 9.83594 145.305 9.66797 144.812 9.66797C144.227 9.66797 143.766 9.88281 143.43 10.3125C143.094 10.7422 142.926 11.3359 142.926 12.0938C142.926 12.7852 143.086 13.332 143.406 13.7344C143.73 14.1328 144.164 14.332 144.707 14.332C145.242 14.332 145.676 14.1387 146.008 13.752C146.344 13.3652 146.512 12.877 146.512 12.2871Z" fill="#F2A62C"/>
<rect x="0.5" y="0.5" width="80" height="21" rx="10.5" stroke="#FF3119"/>
<path d="M16.6055 15H15.5156L14.625 12.6445H11.0625L10.2246 15H9.12891L12.3516 6.59766H13.3711L16.6055 15ZM14.3027 11.7598L12.9844 8.17969C12.9414 8.0625 12.8984 7.875 12.8555 7.61719H12.832C12.793 7.85547 12.748 8.04297 12.6973 8.17969L11.3906 11.7598H14.3027ZM18.7031 14.1328H18.6797V15H17.7188V6.11719H18.6797V10.0547H18.7031C19.1758 9.25781 19.8672 8.85938 20.7773 8.85938C21.5469 8.85938 22.1484 9.12891 22.582 9.66797C23.0195 10.2031 23.2383 10.9219 23.2383 11.8242C23.2383 12.8281 22.9941 13.6328 22.5059 14.2383C22.0176 14.8398 21.3496 15.1406 20.502 15.1406C19.709 15.1406 19.1094 14.8047 18.7031 14.1328ZM18.6797 11.7129V12.5508C18.6797 13.0469 18.8398 13.4688 19.1602 13.8164C19.4844 14.1602 19.8945 14.332 20.3906 14.332C20.9727 14.332 21.4277 14.1094 21.7559 13.6641C22.0879 13.2188 22.2539 12.5996 22.2539 11.8066C22.2539 11.1387 22.0996 10.6152 21.791 10.2363C21.4824 9.85742 21.0645 9.66797 20.5371 9.66797C19.9785 9.66797 19.5293 9.86328 19.1895 10.2539C18.8496 10.6406 18.6797 11.127 18.6797 11.7129ZM29.0684 15H28.1074V14.0625H28.084C27.666 14.7812 27.0508 15.1406 26.2383 15.1406C25.6406 15.1406 25.1719 14.9824 24.832 14.666C24.4961 14.3496 24.3281 13.9297 24.3281 13.4062C24.3281 12.2852 24.9883 11.6328 26.3086 11.4492L28.1074 11.1973C28.1074 10.1777 27.6953 9.66797 26.8711 9.66797C26.1484 9.66797 25.4961 9.91406 24.9141 10.4062V9.42188C25.5039 9.04688 26.1836 8.85938 26.9531 8.85938C28.3633 8.85938 29.0684 9.60547 29.0684 11.0977V15ZM28.1074 11.9648L26.6602 12.1641C26.2148 12.2266 25.8789 12.3379 25.6523 12.498C25.4258 12.6543 25.3125 12.9336 25.3125 13.3359C25.3125 13.6289 25.416 13.8691 25.623 14.0566C25.834 14.2402 26.1133 14.332 26.4609 14.332C26.9375 14.332 27.3301 14.166 27.6387 13.834C27.9512 13.498 28.1074 13.0742 28.1074 12.5625V11.9648ZM35.8594 15H34.8984V11.5781C34.8984 10.3047 34.4336 9.66797 33.5039 9.66797C33.0234 9.66797 32.625 9.84961 32.3086 10.2129C31.9961 10.5723 31.8398 11.0273 31.8398 11.5781V15H30.8789V9H31.8398V9.99609H31.8633C32.3164 9.23828 32.9727 8.85938 33.832 8.85938C34.4883 8.85938 34.9902 9.07227 35.3379 9.49805C35.6855 9.91992 35.8594 10.5312 35.8594 11.332V15ZM42.7969 15H41.8359V13.9805H41.8125C41.3672 14.7539 40.6797 15.1406 39.75 15.1406C38.9961 15.1406 38.3926 14.873 37.9395 14.3379C37.4902 13.7988 37.2656 13.0664 37.2656 12.1406C37.2656 11.1484 37.5156 10.3535 38.0156 9.75586C38.5156 9.1582 39.1816 8.85938 40.0137 8.85938C40.8379 8.85938 41.4375 9.18359 41.8125 9.83203H41.8359V6.11719H42.7969V15ZM41.8359 12.2871V11.4023C41.8359 10.918 41.6758 10.5078 41.3555 10.1719C41.0352 9.83594 40.6289 9.66797 40.1367 9.66797C39.5508 9.66797 39.0898 9.88281 38.7539 10.3125C38.418 10.7422 38.25 11.3359 38.25 12.0938C38.25 12.7852 38.4102 13.332 38.7305 13.7344C39.0547 14.1328 39.4883 14.332 40.0312 14.332C40.5664 14.332 41 14.1387 41.332 13.752C41.668 13.3652 41.8359 12.877 41.8359 12.2871ZM47.25 15.1406C46.3633 15.1406 45.6543 14.8613 45.123 14.3027C44.5957 13.7402 44.332 12.9961 44.332 12.0703C44.332 11.0625 44.6074 10.2754 45.1582 9.70898C45.709 9.14258 46.4531 8.85938 47.3906 8.85938C48.2852 8.85938 48.9824 9.13477 49.4824 9.68555C49.9863 10.2363 50.2383 11 50.2383 11.9766C50.2383 12.9336 49.9668 13.7012 49.4238 14.2793C48.8848 14.8535 48.1602 15.1406 47.25 15.1406ZM47.3203 9.66797C46.7031 9.66797 46.2148 9.87891 45.8555 10.3008C45.4961 10.7188 45.3164 11.2969 45.3164 12.0352C45.3164 12.7461 45.498 13.3066 45.8613 13.7168C46.2246 14.127 46.7109 14.332 47.3203 14.332C47.9414 14.332 48.418 14.1309 48.75 13.7285C49.0859 13.3262 49.2539 12.7539 49.2539 12.0117C49.2539 11.2617 49.0859 10.6836 48.75 10.2773C48.418 9.87109 47.9414 9.66797 47.3203 9.66797ZM56.7539 15H55.793V11.5781C55.793 10.3047 55.3281 9.66797 54.3984 9.66797C53.918 9.66797 53.5195 9.84961 53.2031 10.2129C52.8906 10.5723 52.7344 11.0273 52.7344 11.5781V15H51.7734V9H52.7344V9.99609H52.7578C53.2109 9.23828 53.8672 8.85938 54.7266 8.85938C55.3828 8.85938 55.8848 9.07227 56.2324 9.49805C56.5801 9.91992 56.7539 10.5312 56.7539 11.332V15ZM63.3926 12.2402H59.1562C59.1719 12.9082 59.3516 13.4238 59.6953 13.7871C60.0391 14.1504 60.5117 14.332 61.1133 14.332C61.7891 14.332 62.4102 14.1094 62.9766 13.6641V14.5664C62.4492 14.9492 61.752 15.1406 60.8848 15.1406C60.0371 15.1406 59.3711 14.8691 58.8867 14.3262C58.4023 13.7793 58.1602 13.0117 58.1602 12.0234C58.1602 11.0898 58.4238 10.3301 58.9512 9.74414C59.4824 9.1543 60.1406 8.85938 60.9258 8.85938C61.7109 8.85938 62.3184 9.11328 62.748 9.62109C63.1777 10.1289 63.3926 10.834 63.3926 11.7363V12.2402ZM62.4082 11.4258C62.4043 10.8711 62.2695 10.4395 62.0039 10.1309C61.7422 9.82227 61.377 9.66797 60.9082 9.66797C60.4551 9.66797 60.0703 9.83008 59.7539 10.1543C59.4375 10.4785 59.2422 10.9023 59.168 11.4258H62.4082ZM69.9727 15H69.0117V13.9805H68.9883C68.543 14.7539 67.8555 15.1406 66.9258 15.1406C66.1719 15.1406 65.5684 14.873 65.1152 14.3379C64.666 13.7988 64.4414 13.0664 64.4414 12.1406C64.4414 11.1484 64.6914 10.3535 65.1914 9.75586C65.6914 9.1582 66.3574 8.85938 67.1895 8.85938C68.0137 8.85938 68.6133 9.18359 68.9883 9.83203H69.0117V6.11719H69.9727V15ZM69.0117 12.2871V11.4023C69.0117 10.918 68.8516 10.5078 68.5312 10.1719C68.2109 9.83594 67.8047 9.66797 67.3125 9.66797C66.7266 9.66797 66.2656 9.88281 65.9297 10.3125C65.5938 10.7422 65.4258 11.3359 65.4258 12.0938C65.4258 12.7852 65.5859 13.332 65.9062 13.7344C66.2305 14.1328 66.6641 14.332 67.207 14.332C67.7422 14.332 68.1758 14.1387 68.5078 13.752C68.8438 13.3652 69.0117 12.877 69.0117 12.2871Z" fill="#FF3119"/>
</svg>
