<svg width="67" height="22" viewBox="0 0 67 22" fill="none" xmlns="http://www.w3.org/2000/svg">
<rect x="0.5" y="0.5" width="66" height="21" rx="10.5" stroke="#F2A62C"/>
<path d="M18.668 15H17.6895V9.36328C17.6895 8.91797 17.7168 8.37305 17.7715 7.72852H17.748C17.6543 8.10742 17.5703 8.37891 17.4961 8.54297L14.625 15H14.1445L11.2793 8.58984C11.1973 8.40234 11.1133 8.11523 11.0273 7.72852H11.0039C11.0352 8.06445 11.0508 8.61328 11.0508 9.375V15H10.1016V6.59766H11.4023L13.9805 12.457C14.1797 12.9062 14.3086 13.2422 14.3672 13.4648H14.4023C14.5703 13.0039 14.7051 12.6602 14.8066 12.4336L17.4375 6.59766H18.668V15ZM21.2461 7.47656C21.0742 7.47656 20.9277 7.41797 20.8066 7.30078C20.6855 7.18359 20.625 7.03516 20.625 6.85547C20.625 6.67578 20.6855 6.52734 20.8066 6.41016C20.9277 6.28906 21.0742 6.22852 21.2461 6.22852C21.4219 6.22852 21.5703 6.28906 21.6914 6.41016C21.8164 6.52734 21.8789 6.67578 21.8789 6.85547C21.8789 7.02734 21.8164 7.17383 21.6914 7.29492C21.5703 7.41602 21.4219 7.47656 21.2461 7.47656ZM21.7148 15H20.7539V9H21.7148V15ZM28.7812 14.5195C28.7812 16.7227 27.7266 17.8242 25.6172 17.8242C24.875 17.8242 24.2266 17.6836 23.6719 17.4023V16.4414C24.3477 16.8164 24.9922 17.0039 25.6055 17.0039C27.082 17.0039 27.8203 16.2188 27.8203 14.6484V13.9922H27.7969C27.3398 14.7578 26.6523 15.1406 25.7344 15.1406C24.9883 15.1406 24.3867 14.875 23.9297 14.3438C23.4766 13.8086 23.25 13.0918 23.25 12.1934C23.25 11.1738 23.4941 10.3633 23.9824 9.76172C24.4746 9.16016 25.1465 8.85938 25.998 8.85938C26.8066 8.85938 27.4062 9.18359 27.7969 9.83203H27.8203V9H28.7812V14.5195ZM27.8203 12.2871V11.4023C27.8203 10.9258 27.6582 10.5176 27.334 10.1777C27.0137 9.83789 26.6133 9.66797 26.1328 9.66797C25.5391 9.66797 25.0742 9.88477 24.7383 10.3184C24.4023 10.748 24.2344 11.3516 24.2344 12.1289C24.2344 12.7969 24.3945 13.332 24.7148 13.7344C25.0391 14.1328 25.4668 14.332 25.998 14.332C26.5371 14.332 26.9746 14.1406 27.3105 13.7578C27.6504 13.375 27.8203 12.8848 27.8203 12.2871ZM33.8555 9.97266C33.6875 9.84375 33.4453 9.7793 33.1289 9.7793C32.7188 9.7793 32.375 9.97266 32.0977 10.3594C31.8242 10.7461 31.6875 11.2734 31.6875 11.9414V15H30.7266V9H31.6875V10.2363H31.7109C31.8477 9.81445 32.0566 9.48633 32.3379 9.25195C32.6191 9.01367 32.9336 8.89453 33.2812 8.89453C33.5312 8.89453 33.7227 8.92188 33.8555 8.97656V9.97266ZM39.1934 15H38.2324V14.0625H38.209C37.791 14.7812 37.1758 15.1406 36.3633 15.1406C35.7656 15.1406 35.2969 14.9824 34.957 14.666C34.6211 14.3496 34.4531 13.9297 34.4531 13.4062C34.4531 12.2852 35.1133 11.6328 36.4336 11.4492L38.2324 11.1973C38.2324 10.1777 37.8203 9.66797 36.9961 9.66797C36.2734 9.66797 35.6211 9.91406 35.0391 10.4062V9.42188C35.6289 9.04688 36.3086 8.85938 37.0781 8.85938C38.4883 8.85938 39.1934 9.60547 39.1934 11.0977V15ZM38.2324 11.9648L36.7852 12.1641C36.3398 12.2266 36.0039 12.3379 35.7773 12.498C35.5508 12.6543 35.4375 12.9336 35.4375 13.3359C35.4375 13.6289 35.541 13.8691 35.748 14.0566C35.959 14.2402 36.2383 14.332 36.5859 14.332C37.0625 14.332 37.4551 14.166 37.7637 13.834C38.0762 13.498 38.2324 13.0742 38.2324 12.5625V11.9648ZM43.7871 14.9414C43.5605 15.0664 43.2617 15.1289 42.8906 15.1289C41.8398 15.1289 41.3145 14.543 41.3145 13.3711V9.82031H40.2832V9H41.3145V7.53516L42.2754 7.22461V9H43.7871V9.82031H42.2754V13.2012C42.2754 13.6035 42.3438 13.8906 42.4805 14.0625C42.6172 14.2344 42.8438 14.3203 43.1602 14.3203C43.4023 14.3203 43.6113 14.2539 43.7871 14.1211V14.9414ZM49.8926 12.2402H45.6562C45.6719 12.9082 45.8516 13.4238 46.1953 13.7871C46.5391 14.1504 47.0117 14.332 47.6133 14.332C48.2891 14.332 48.9102 14.1094 49.4766 13.6641V14.5664C48.9492 14.9492 48.252 15.1406 47.3848 15.1406C46.5371 15.1406 45.8711 14.8691 45.3867 14.3262C44.9023 13.7793 44.6602 13.0117 44.6602 12.0234C44.6602 11.0898 44.9238 10.3301 45.4512 9.74414C45.9824 9.1543 46.6406 8.85938 47.4258 8.85938C48.2109 8.85938 48.8184 9.11328 49.248 9.62109C49.6777 10.1289 49.8926 10.834 49.8926 11.7363V12.2402ZM48.9082 11.4258C48.9043 10.8711 48.7695 10.4395 48.5039 10.1309C48.2422 9.82227 47.877 9.66797 47.4082 9.66797C46.9551 9.66797 46.5703 9.83008 46.2539 10.1543C45.9375 10.4785 45.7422 10.9023 45.668 11.4258H48.9082ZM56.4727 15H55.5117V13.9805H55.4883C55.043 14.7539 54.3555 15.1406 53.4258 15.1406C52.6719 15.1406 52.0684 14.873 51.6152 14.3379C51.166 13.7988 50.9414 13.0664 50.9414 12.1406C50.9414 11.1484 51.1914 10.3535 51.6914 9.75586C52.1914 9.1582 52.8574 8.85938 53.6895 8.85938C54.5137 8.85938 55.1133 9.18359 55.4883 9.83203H55.5117V6.11719H56.4727V15ZM55.5117 12.2871V11.4023C55.5117 10.918 55.3516 10.5078 55.0312 10.1719C54.7109 9.83594 54.3047 9.66797 53.8125 9.66797C53.2266 9.66797 52.7656 9.88281 52.4297 10.3125C52.0938 10.7422 51.9258 11.3359 51.9258 12.0938C51.9258 12.7852 52.0859 13.332 52.4062 13.7344C52.7305 14.1328 53.1641 14.332 53.707 14.332C54.2422 14.332 54.6758 14.1387 55.0078 13.752C55.3438 13.3652 55.5117 12.877 55.5117 12.2871Z" fill="#F2A62C"/>
</svg>
