<svg width="51" height="22" viewBox="0 0 51 22" fill="none" xmlns="http://www.w3.org/2000/svg">
<rect x="0.5" y="0.5" width="50" height="21" rx="10.5" stroke="#0AA25B"/>
<path d="M16.6055 15H15.5156L14.625 12.6445H11.0625L10.2246 15H9.12891L12.3516 6.59766H13.3711L16.6055 15ZM14.3027 11.7598L12.9844 8.17969C12.9414 8.0625 12.8984 7.875 12.8555 7.61719H12.832C12.793 7.85547 12.748 8.04297 12.6973 8.17969L11.3906 11.7598H14.3027ZM21.8086 14.7246C21.3477 15.002 20.8008 15.1406 20.168 15.1406C19.3125 15.1406 18.6211 14.8633 18.0938 14.3086C17.5703 13.75 17.3086 13.0273 17.3086 12.1406C17.3086 11.1523 17.5918 10.3594 18.1582 9.76172C18.7246 9.16016 19.4805 8.85938 20.4258 8.85938C20.9531 8.85938 21.418 8.95703 21.8203 9.15234V10.1367C21.375 9.82422 20.8984 9.66797 20.3906 9.66797C19.7773 9.66797 19.2734 9.88867 18.8789 10.3301C18.4883 10.7676 18.293 11.3438 18.293 12.0586C18.293 12.7617 18.4766 13.3164 18.8438 13.7227C19.2148 14.1289 19.7109 14.332 20.332 14.332C20.8555 14.332 21.3477 14.1582 21.8086 13.8105V14.7246ZM26.0449 14.9414C25.8184 15.0664 25.5195 15.1289 25.1484 15.1289C24.0977 15.1289 23.5723 14.543 23.5723 13.3711V9.82031H22.541V9H23.5723V7.53516L24.5332 7.22461V9H26.0449V9.82031H24.5332V13.2012C24.5332 13.6035 24.6016 13.8906 24.7383 14.0625C24.875 14.2344 25.1016 14.3203 25.418 14.3203C25.6602 14.3203 25.8691 14.2539 26.0449 14.1211V14.9414ZM27.8203 7.47656C27.6484 7.47656 27.502 7.41797 27.3809 7.30078C27.2598 7.18359 27.1992 7.03516 27.1992 6.85547C27.1992 6.67578 27.2598 6.52734 27.3809 6.41016C27.502 6.28906 27.6484 6.22852 27.8203 6.22852C27.9961 6.22852 28.1445 6.28906 28.2656 6.41016C28.3906 6.52734 28.4531 6.67578 28.4531 6.85547C28.4531 7.02734 28.3906 7.17383 28.2656 7.29492C28.1445 7.41602 27.9961 7.47656 27.8203 7.47656ZM28.2891 15H27.3281V9H28.2891V15ZM34.9512 9L32.5605 15H31.6172L29.3438 9H30.3984L31.9219 13.3594C32.0352 13.6797 32.1055 13.959 32.1328 14.1973H32.1562C32.1953 13.8965 32.2578 13.625 32.3438 13.3828L33.9375 9H34.9512ZM40.8105 12.2402H36.5742C36.5898 12.9082 36.7695 13.4238 37.1133 13.7871C37.457 14.1504 37.9297 14.332 38.5312 14.332C39.207 14.332 39.8281 14.1094 40.3945 13.6641V14.5664C39.8672 14.9492 39.1699 15.1406 38.3027 15.1406C37.4551 15.1406 36.7891 14.8691 36.3047 14.3262C35.8203 13.7793 35.5781 13.0117 35.5781 12.0234C35.5781 11.0898 35.8418 10.3301 36.3691 9.74414C36.9004 9.1543 37.5586 8.85938 38.3438 8.85938C39.1289 8.85938 39.7363 9.11328 40.166 9.62109C40.5957 10.1289 40.8105 10.834 40.8105 11.7363V12.2402ZM39.8262 11.4258C39.8223 10.8711 39.6875 10.4395 39.4219 10.1309C39.1602 9.82227 38.7949 9.66797 38.3262 9.66797C37.873 9.66797 37.4883 9.83008 37.1719 10.1543C36.8555 10.4785 36.6602 10.9023 36.5859 11.4258H39.8262Z" fill="#0AA25B"/>
</svg>
