<svg width="59" height="22" viewBox="0 0 59 22" fill="none" xmlns="http://www.w3.org/2000/svg">
<rect x="0.5" y="0.5" width="58" height="21" rx="10.5" stroke="#57606A"/>
<path d="M11.0859 15H10.1016V6.59766H11.0859V15ZM18.1523 15H17.1914V11.5781C17.1914 10.3047 16.7266 9.66797 15.7969 9.66797C15.3164 9.66797 14.918 9.84961 14.6016 10.2129C14.2891 10.5723 14.1328 11.0273 14.1328 11.5781V15H13.1719V9H14.1328V9.99609H14.1562C14.6094 9.23828 15.2656 8.85938 16.125 8.85938C16.7812 8.85938 17.2832 9.07227 17.6309 9.49805C17.9785 9.91992 18.1523 10.5312 18.1523 11.332V15ZM24.2637 15H23.3027V14.0625H23.2793C22.8613 14.7812 22.2461 15.1406 21.4336 15.1406C20.8359 15.1406 20.3672 14.9824 20.0273 14.666C19.6914 14.3496 19.5234 13.9297 19.5234 13.4062C19.5234 12.2852 20.1836 11.6328 21.5039 11.4492L23.3027 11.1973C23.3027 10.1777 22.8906 9.66797 22.0664 9.66797C21.3438 9.66797 20.6914 9.91406 20.1094 10.4062V9.42188C20.6992 9.04688 21.3789 8.85938 22.1484 8.85938C23.5586 8.85938 24.2637 9.60547 24.2637 11.0977V15ZM23.3027 11.9648L21.8555 12.1641C21.4102 12.2266 21.0742 12.3379 20.8477 12.498C20.6211 12.6543 20.5078 12.9336 20.5078 13.3359C20.5078 13.6289 20.6113 13.8691 20.8184 14.0566C21.0293 14.2402 21.3086 14.332 21.6562 14.332C22.1328 14.332 22.5254 14.166 22.834 13.834C23.1465 13.498 23.3027 13.0742 23.3027 12.5625V11.9648ZM30.1641 14.7246C29.7031 15.002 29.1562 15.1406 28.5234 15.1406C27.668 15.1406 26.9766 14.8633 26.4492 14.3086C25.9258 13.75 25.6641 13.0273 25.6641 12.1406C25.6641 11.1523 25.9473 10.3594 26.5137 9.76172C27.0801 9.16016 27.8359 8.85938 28.7812 8.85938C29.3086 8.85938 29.7734 8.95703 30.1758 9.15234V10.1367C29.7305 9.82422 29.2539 9.66797 28.7461 9.66797C28.1328 9.66797 27.6289 9.88867 27.2344 10.3301C26.8438 10.7676 26.6484 11.3438 26.6484 12.0586C26.6484 12.7617 26.832 13.3164 27.1992 13.7227C27.5703 14.1289 28.0664 14.332 28.6875 14.332C29.2109 14.332 29.7031 14.1582 30.1641 13.8105V14.7246ZM34.4004 14.9414C34.1738 15.0664 33.875 15.1289 33.5039 15.1289C32.4531 15.1289 31.9277 14.543 31.9277 13.3711V9.82031H30.8965V9H31.9277V7.53516L32.8887 7.22461V9H34.4004V9.82031H32.8887V13.2012C32.8887 13.6035 32.957 13.8906 33.0938 14.0625C33.2305 14.2344 33.457 14.3203 33.7734 14.3203C34.0156 14.3203 34.2246 14.2539 34.4004 14.1211V14.9414ZM36.1758 7.47656C36.0039 7.47656 35.8574 7.41797 35.7363 7.30078C35.6152 7.18359 35.5547 7.03516 35.5547 6.85547C35.5547 6.67578 35.6152 6.52734 35.7363 6.41016C35.8574 6.28906 36.0039 6.22852 36.1758 6.22852C36.3516 6.22852 36.5 6.28906 36.6211 6.41016C36.7461 6.52734 36.8086 6.67578 36.8086 6.85547C36.8086 7.02734 36.7461 7.17383 36.6211 7.29492C36.5 7.41602 36.3516 7.47656 36.1758 7.47656ZM36.6445 15H35.6836V9H36.6445V15ZM43.3066 9L40.916 15H39.9727L37.6992 9H38.7539L40.2773 13.3594C40.3906 13.6797 40.4609 13.959 40.4883 14.1973H40.5117C40.5508 13.8965 40.6133 13.625 40.6992 13.3828L42.293 9H43.3066ZM49.166 12.2402H44.9297C44.9453 12.9082 45.125 13.4238 45.4688 13.7871C45.8125 14.1504 46.2852 14.332 46.8867 14.332C47.5625 14.332 48.1836 14.1094 48.75 13.6641V14.5664C48.2227 14.9492 47.5254 15.1406 46.6582 15.1406C45.8105 15.1406 45.1445 14.8691 44.6602 14.3262C44.1758 13.7793 43.9336 13.0117 43.9336 12.0234C43.9336 11.0898 44.1973 10.3301 44.7246 9.74414C45.2559 9.1543 45.9141 8.85938 46.6992 8.85938C47.4844 8.85938 48.0918 9.11328 48.5215 9.62109C48.9512 10.1289 49.166 10.834 49.166 11.7363V12.2402ZM48.1816 11.4258C48.1777 10.8711 48.043 10.4395 47.7773 10.1309C47.5156 9.82227 47.1504 9.66797 46.6816 9.66797C46.2285 9.66797 45.8438 9.83008 45.5273 10.1543C45.2109 10.4785 45.0156 10.9023 44.9414 11.4258H48.1816Z" fill="#57606A"/>
</svg>
