<svg width="81" height="22" viewBox="0 0 81 22" fill="none" xmlns="http://www.w3.org/2000/svg">
<rect x="0.5" y="0.5" width="80" height="21" rx="10.5" stroke="#FF3119"/>
<path d="M16.6055 15H15.5156L14.625 12.6445H11.0625L10.2246 15H9.12891L12.3516 6.59766H13.3711L16.6055 15ZM14.3027 11.7598L12.9844 8.17969C12.9414 8.0625 12.8984 7.875 12.8555 7.61719H12.832C12.793 7.85547 12.748 8.04297 12.6973 8.17969L11.3906 11.7598H14.3027ZM18.7031 14.1328H18.6797V15H17.7188V6.11719H18.6797V10.0547H18.7031C19.1758 9.25781 19.8672 8.85938 20.7773 8.85938C21.5469 8.85938 22.1484 9.12891 22.582 9.66797C23.0195 10.2031 23.2383 10.9219 23.2383 11.8242C23.2383 12.8281 22.9941 13.6328 22.5059 14.2383C22.0176 14.8398 21.3496 15.1406 20.502 15.1406C19.709 15.1406 19.1094 14.8047 18.7031 14.1328ZM18.6797 11.7129V12.5508C18.6797 13.0469 18.8398 13.4688 19.1602 13.8164C19.4844 14.1602 19.8945 14.332 20.3906 14.332C20.9727 14.332 21.4277 14.1094 21.7559 13.6641C22.0879 13.2188 22.2539 12.5996 22.2539 11.8066C22.2539 11.1387 22.0996 10.6152 21.791 10.2363C21.4824 9.85742 21.0645 9.66797 20.5371 9.66797C19.9785 9.66797 19.5293 9.86328 19.1895 10.2539C18.8496 10.6406 18.6797 11.127 18.6797 11.7129ZM29.0684 15H28.1074V14.0625H28.084C27.666 14.7812 27.0508 15.1406 26.2383 15.1406C25.6406 15.1406 25.1719 14.9824 24.832 14.666C24.4961 14.3496 24.3281 13.9297 24.3281 13.4062C24.3281 12.2852 24.9883 11.6328 26.3086 11.4492L28.1074 11.1973C28.1074 10.1777 27.6953 9.66797 26.8711 9.66797C26.1484 9.66797 25.4961 9.91406 24.9141 10.4062V9.42188C25.5039 9.04688 26.1836 8.85938 26.9531 8.85938C28.3633 8.85938 29.0684 9.60547 29.0684 11.0977V15ZM28.1074 11.9648L26.6602 12.1641C26.2148 12.2266 25.8789 12.3379 25.6523 12.498C25.4258 12.6543 25.3125 12.9336 25.3125 13.3359C25.3125 13.6289 25.416 13.8691 25.623 14.0566C25.834 14.2402 26.1133 14.332 26.4609 14.332C26.9375 14.332 27.3301 14.166 27.6387 13.834C27.9512 13.498 28.1074 13.0742 28.1074 12.5625V11.9648ZM35.8594 15H34.8984V11.5781C34.8984 10.3047 34.4336 9.66797 33.5039 9.66797C33.0234 9.66797 32.625 9.84961 32.3086 10.2129C31.9961 10.5723 31.8398 11.0273 31.8398 11.5781V15H30.8789V9H31.8398V9.99609H31.8633C32.3164 9.23828 32.9727 8.85938 33.832 8.85938C34.4883 8.85938 34.9902 9.07227 35.3379 9.49805C35.6855 9.91992 35.8594 10.5312 35.8594 11.332V15ZM42.7969 15H41.8359V13.9805H41.8125C41.3672 14.7539 40.6797 15.1406 39.75 15.1406C38.9961 15.1406 38.3926 14.873 37.9395 14.3379C37.4902 13.7988 37.2656 13.0664 37.2656 12.1406C37.2656 11.1484 37.5156 10.3535 38.0156 9.75586C38.5156 9.1582 39.1816 8.85938 40.0137 8.85938C40.8379 8.85938 41.4375 9.18359 41.8125 9.83203H41.8359V6.11719H42.7969V15ZM41.8359 12.2871V11.4023C41.8359 10.918 41.6758 10.5078 41.3555 10.1719C41.0352 9.83594 40.6289 9.66797 40.1367 9.66797C39.5508 9.66797 39.0898 9.88281 38.7539 10.3125C38.418 10.7422 38.25 11.3359 38.25 12.0938C38.25 12.7852 38.4102 13.332 38.7305 13.7344C39.0547 14.1328 39.4883 14.332 40.0312 14.332C40.5664 14.332 41 14.1387 41.332 13.752C41.668 13.3652 41.8359 12.877 41.8359 12.2871ZM47.25 15.1406C46.3633 15.1406 45.6543 14.8613 45.123 14.3027C44.5957 13.7402 44.332 12.9961 44.332 12.0703C44.332 11.0625 44.6074 10.2754 45.1582 9.70898C45.709 9.14258 46.4531 8.85938 47.3906 8.85938C48.2852 8.85938 48.9824 9.13477 49.4824 9.68555C49.9863 10.2363 50.2383 11 50.2383 11.9766C50.2383 12.9336 49.9668 13.7012 49.4238 14.2793C48.8848 14.8535 48.1602 15.1406 47.25 15.1406ZM47.3203 9.66797C46.7031 9.66797 46.2148 9.87891 45.8555 10.3008C45.4961 10.7188 45.3164 11.2969 45.3164 12.0352C45.3164 12.7461 45.498 13.3066 45.8613 13.7168C46.2246 14.127 46.7109 14.332 47.3203 14.332C47.9414 14.332 48.418 14.1309 48.75 13.7285C49.0859 13.3262 49.2539 12.7539 49.2539 12.0117C49.2539 11.2617 49.0859 10.6836 48.75 10.2773C48.418 9.87109 47.9414 9.66797 47.3203 9.66797ZM56.7539 15H55.793V11.5781C55.793 10.3047 55.3281 9.66797 54.3984 9.66797C53.918 9.66797 53.5195 9.84961 53.2031 10.2129C52.8906 10.5723 52.7344 11.0273 52.7344 11.5781V15H51.7734V9H52.7344V9.99609H52.7578C53.2109 9.23828 53.8672 8.85938 54.7266 8.85938C55.3828 8.85938 55.8848 9.07227 56.2324 9.49805C56.5801 9.91992 56.7539 10.5312 56.7539 11.332V15ZM63.3926 12.2402H59.1562C59.1719 12.9082 59.3516 13.4238 59.6953 13.7871C60.0391 14.1504 60.5117 14.332 61.1133 14.332C61.7891 14.332 62.4102 14.1094 62.9766 13.6641V14.5664C62.4492 14.9492 61.752 15.1406 60.8848 15.1406C60.0371 15.1406 59.3711 14.8691 58.8867 14.3262C58.4023 13.7793 58.1602 13.0117 58.1602 12.0234C58.1602 11.0898 58.4238 10.3301 58.9512 9.74414C59.4824 9.1543 60.1406 8.85938 60.9258 8.85938C61.7109 8.85938 62.3184 9.11328 62.748 9.62109C63.1777 10.1289 63.3926 10.834 63.3926 11.7363V12.2402ZM62.4082 11.4258C62.4043 10.8711 62.2695 10.4395 62.0039 10.1309C61.7422 9.82227 61.377 9.66797 60.9082 9.66797C60.4551 9.66797 60.0703 9.83008 59.7539 10.1543C59.4375 10.4785 59.2422 10.9023 59.168 11.4258H62.4082ZM69.9727 15H69.0117V13.9805H68.9883C68.543 14.7539 67.8555 15.1406 66.9258 15.1406C66.1719 15.1406 65.5684 14.873 65.1152 14.3379C64.666 13.7988 64.4414 13.0664 64.4414 12.1406C64.4414 11.1484 64.6914 10.3535 65.1914 9.75586C65.6914 9.1582 66.3574 8.85938 67.1895 8.85938C68.0137 8.85938 68.6133 9.18359 68.9883 9.83203H69.0117V6.11719H69.9727V15ZM69.0117 12.2871V11.4023C69.0117 10.918 68.8516 10.5078 68.5312 10.1719C68.2109 9.83594 67.8047 9.66797 67.3125 9.66797C66.7266 9.66797 66.2656 9.88281 65.9297 10.3125C65.5938 10.7422 65.4258 11.3359 65.4258 12.0938C65.4258 12.7852 65.5859 13.332 65.9062 13.7344C66.2305 14.1328 66.6641 14.332 67.207 14.332C67.7422 14.332 68.1758 14.1387 68.5078 13.752C68.8438 13.3652 69.0117 12.877 69.0117 12.2871Z" fill="#FF3119"/>
</svg>
